# AST/ASF file generated using VICON BodyLanguage
# -----------------------------------------------
:version 1.10
:name VICON
:units
  mass 1.0
  length 0.45
  angle deg
:documentation
   .ast/.asf automatically generated from VICON data using
   VICON BodyBuilder and BodyLanguage model FoxedUp or BRILLIANT.MOD
:root
   order TX TY TZ RX RY RZ
   axis XYZ
   position 0 0 0  
   orientation 0 0 0 
:bonedata
  begin
     id 1 
     name lhipjoint
     direction 0.710188 -0.616876 0.339259 
     length 2.5669 
     axis 0 0 0  XYZ
  end
  begin
     id 2 
     name lfemur
     direction 0.34202 -0.939693 0  
     length 7.12796  
     axis 0 0 20  XYZ
    dof rx ry rz
    limits (-160.0 20.0)
           (-70.0 70.0)
           (-60.0 70.0)
  end
  begin
     id 3 
     name ltibia
     direction 0.34202 -0.939693 0   
     length 7.58108   
     axis 0 0 20   XYZ
    dof rx
    limits (-10.0 170.0)
  end
  begin
     id 4 
     name lfoot
     direction 0.0669471 -0.183936 0.980656   
     length 2.17365   
     axis -90 7.62852e-016 20   XYZ
    dof rx rz
    limits (-45.0 90.0)
           (-70.0 20.0)
  end
  begin
     id 5 
     name ltoes
     direction 1.53508e-011 -4.21705e-011 1   
     length 1.09427   
     axis -90 7.62852e-016 20   XYZ
    dof rx
    limits (-90.0 20.0)
  end
  begin
     id 6 
     name rhipjoint
     direction -0.700191 -0.625589 0.34405   
     length 2.53115  
     axis 0 0 0  XYZ 
  end
  begin
     id 7 
     name rfemur
     direction -0.34202 -0.939693 0   
     length 7.33006   
     axis 0 0 -20   XYZ
    dof rx ry rz
    limits (-160.0 20.0)
           (-70.0 70.0)
           (-70.0 60.0)
  end
  begin
     id 8 
     name rtibia
     direction -0.34202 -0.939693 0   
     length 7.64926   
     axis 0 0 -20   XYZ
    dof rx
    limits (-10.0 170.0)
 end
 begin
     id 9 
     name rfoot
     direction -0.0688927 -0.189281 0.979503   
     length 2.20493  
     axis -90 -7.62852e-016 -20   XYZ
    dof rx rz
    limits (-45.0 90.0)
           (-20.0 70.0)
  end
  begin
     id 10 
     name rtoes
     direction -1.53567e-011 -4.21933e-011 1   
     length 1.10919   
     axis -90 -7.62852e-016 -20   XYZ
    dof rx
    limits (-90.0 20.0)
  end
  begin
     id 11 
     name lowerback
     direction -0.0167868 0.989873 -0.140959   
     length 2.14596   
     axis 0 0 0   XYZ
    dof rx ry rz
    limits (-20.0 45.0)
           (-30.0 30.0)
           (-30.0 30.0)
  end
  begin
     id 12 
     name upperback
     direction 0.0129109 0.998033 0.0613525   
     length 2.10457   
     axis 0 0 0   XYZ
    dof rx ry rz
    limits (-20.0 45.0)
           (-30.0 30.0)
           (-30.0 30.0)
  end
  begin
     id 13 
     name thorax
     direction 0.0177047 0.991119 0.131797   
     length 2.17652   
     axis 0 0 0   XYZ
    dof rx ry rz
    limits (-20.0 45.0)
           (-30.0 30.0)
           (-30.0 30.0)
  end
  begin
     id 14 
     name lowerneck
     direction -0.0336893 0.997548 0.0613464   
     length 1.8912   
     axis 0 0 0   XYZ
    dof rx ry rz
    limits (-20.0 45.0)
           (-30.0 30.0)
           (-30.0 30.0)
  end
  begin
     id 15 
     name upperneck
     direction 0.0435909 0.997179 -0.0611028   
     length 1.8829   
     axis 0 0 0   XYZ
    dof rx ry rz
    limits (-20.0 45.0)
           (-30.0 30.0)
           (-30.0 30.0)
  end
  begin
     id 16
     name head
     direction 0.0175076 0.999444 -0.0283782  
     length 1.93197  
     axis 0 0 0   XYZ
    dof rx ry rz
    limits (-20.0 45.0)
           (-30.0 30.0)
           (-30.0 30.0)
  end
  begin
     id 17 
     name lclavicle
     direction 0.919164 0.389875 0.0559876  
     length 3.60004  
     axis 0 0 0   XYZ
    dof ry rz
    limits (-20.0 10.0)
           (0.0 20.0)
  end
  begin
     id 18 
     name lhumerus
     direction 1 -4.48958e-011 6.89191e-027   
     length 5.43301   
     axis 180 -30 -90   XYZ
    dof rx ry rz
    limits (-60.0 90.0)
           (-90.0 90.0)
           (-90.0 90.0)
  end
  begin
     id 19
     name lradius
     direction 1 -4.4897e-011 3.24727e-027   
     length 3.15936   
     axis 180 -30 -90   XYZ
    dof rx
    limits (-10.0 170.0)
  end
  begin
     id 20
     name lwrist
     direction 1 -4.4897e-011 9.00228e-027   
     length 1.57968   
     axis -6.29373e-015 90 90   XYZ
    dof ry
    limits (-180.0 0.0)
 end
  begin
     id 21 
     name lhand
     direction 1 -4.48968e-011 1.80042e-026   
     length 0.712827   
     axis -1.14882e-014 90 90   XYZ
    dof rx rz
    limits (-90.0 90.0)
           (-45.0 45.0)
  end
  begin
     id 22 
     name lfingers
     direction 1 -4.49019e-011 3.60267e-026   
     length 0.574699   
     axis -2.29769e-014 90 90   XYZ
    dof rx
    limits (0.0 90.0)
  end
  begin
     id 23
     name lthumb
     direction 0.707107 -6.3498e-011 0.707107   
     length 0.825157   
     axis -90 45 5.37419e-014   XYZ
    dof rx rz
    limits (-45.0 45.0)
           (-45.0 45.0)
  end
  begin
     id 24 
     name rclavicle
     direction -0.890334 0.455305 -0.00132111   
     length 3.51494  
     axis 0 0 0   XYZ 
    dof ry rz
    limits (-10.0 20.0)
           (-20.0 0.0)
  end
  begin
     id 25 
     name rhumerus
     direction -1 -4.48967e-011 5.07175e-028  
     length 5.34194   
     axis 180 30 90   XYZ
    dof rx ry rz
    limits (-90.0 60.0)
           (-90.0 90.0)
           (-90.0 90.0)
  end
  begin
     id 26 
     name rradius
     direction -1 -4.48955e-011 3.30467e-027   
     length 3.19351   
     axis 180 30 90   XYZ
    dof rx
    limits (-10.0 170.0)
  end
  begin
     id 27 
     name rwrist
     direction -1 -4.48968e-011 9.00208e-027   
     length 1.59676   
     axis -6.29373e-015 -90 -90   XYZ
    dof ry
    limits (-180.0 0.0)
  end
  begin
     id 28
     name rhand
     direction -1 -4.49e-011 1.80099e-026   
     length 0.743862   
     axis -1.14882e-014 -90 -90   XYZ
    dof rx rz
    limits (-90.0 90.0)
           (-45.0 45.0)
  end
  begin
     id 29
     name rfingers
     direction -1 -4.49009e-011 3.6023e-026   
     length 0.599721   
     axis -2.29769e-014 -90 -90   XYZ
    dof rx
    limits (0.0 90.0)
  end
  begin
     id 30
     name rthumb
     direction -0.707107 -6.35025e-011 0.707107   
     length 0.861083   
     axis -90 -45 -5.37419e-014   XYZ
    dof rx rz
    limits (-45.0 45.0)
           (-45.0 45.0)
  end
:hierarchy
  begin
    root lhipjoint rhipjoint lowerback
    lhipjoint lfemur
    lfemur ltibia
    ltibia lfoot
    lfoot ltoes
    rhipjoint rfemur
    rfemur rtibia
    rtibia rfoot
    rfoot rtoes
    lowerback upperback
    upperback thorax
    thorax lowerneck lclavicle rclavicle
    lowerneck upperneck
    upperneck head
    lclavicle lhumerus
    lhumerus lradius
    lradius lwrist
    lwrist lhand lthumb
    lhand lfingers
    rclavicle rhumerus
    rhumerus rradius
    rradius rwrist
    rwrist rhand rthumb
    rhand rfingers
  end

#!OML:ASF H:\Martial Arts Walks\Project 1\Capture day 1\Session 1\male.ASF
:FULLY-SPECIFIED
:DEGREES
139
root -4.82585 17.9529 -26.4848 -93.44 46.0221 -98.9368
lowerback 44.1407 -4.70473 2.44101
upperback 4.56795 -2.10978 9.18037
thorax -15.7508 -0.54913 10.0999
lowerneck 1.76576 -12.2067 -13.594
upperneck 6.39503 -18.3428 23.2346
head 5.11267 -8.95666 8.39357
rclavicle 8.11041e-014 3.81667e-014
rhumerus -43.2098 -20.1957 -45.4503
rradius 60.0434
rwrist -12.4933
rhand -34.6527 -53.9217
rfingers 7.12502
rthumb -7.80954 -83.7575
lclavicle 8.11041e-014 3.81667e-014
lhumerus 30.6786 -30.8093 68.942
lradius 72.4179
lwrist 18.9626
lhand -2.24709 5.89774
lfingers 7.12502
lthumb 23.4364 34.4905
rfemur -192.089 -80.9165 115.797
rtibia 151.306
rfoot -24.0574 11.8382
rtoes -10.6509
lfemur -27.0602 0.76974 19.7034
ltibia 36.3442
lfoot -9.79882 21.4133
ltoes 11.3735
140
root -4.799 17.8816 -26.3836 -93.5467 47.4066 -99.2352
lowerback 43.1087 -4.51192 2.10894
upperback 4.46471 -2.32163 8.32529
thorax -15.4966 -0.662028 9.33774
lowerneck 1.95428 -12.3633 -13.4802
upperneck 6.36611 -18.5983 23.4576
head 5.13476 -9.08703 8.42997
rclavicle -8.26944e-014 8.26944e-014
rhumerus -43.4381 -20.5834 -45.729
rradius 61.1798
rwrist -13.3881
rhand -35.0514 -54.9543
rfingers 7.12502
rthumb -8.19441 -84.7754
lclavicle -8.26944e-014 8.26944e-014
lhumerus 28.1742 -31.2033 69.1829
lradius 73.8992
lwrist 19.4792
lhand -1.97204 5.65779
lfingers 7.12502
lthumb 23.7002 34.2166
rfemur -174.78 -79.8184 100.742
rtibia 151.534
rfoot -23.4746 11.9307
rtoes -11.5991
lfemur -28.1287 2.81169 18.1845
ltibia 38.0872
lfoot -10.9591 19.7709
ltoes 10.2536
141
root -4.77206 17.8031 -26.2774 -93.9501 49.1824 -99.7004
lowerback 42.3307 -4.18189 1.46373
upperback 4.28909 -2.47235 7.44301
thorax -15.4165 -0.72509 8.71241
lowerneck 2.23472 -12.6619 -13.375
upperneck 6.35175 -19.058 23.6304
head 5.18146 -9.32445 8.4292
rclavicle 1.17681e-013 -9.54166e-015
rhumerus -44.0593 -21.0024 -45.7581
rradius 62.5721
rwrist -14.0727
rhand -34.9192 -54.4176
rfingers 7.12502
rthumb -8.0668 -84.2436
lclavicle 1.17681e-013 -9.54166e-015
lhumerus 25.5161 -31.791 69.6631
lradius 75.2525
lwrist 19.6674
lhand -1.52501 5.35878
lfingers 7.12502
lthumb 24.1289 33.8614
rfemur -159.107 -78.4655 86.5911
rtibia 151.014
rfoot -23.6727 11.3121
rtoes -14.1001
lfemur -29.1213 4.59292 16.2226
ltibia 39.8513
lfoot -12.092 18.2475
ltoes 9.15775
142
root -4.74386 17.7213 -26.1744 -94.1847 50.826 -99.9273
lowerback 41.5103 -3.48631 0.0237624
upperback 4.31398 -2.35458 7.30602
thorax -15.101 -0.616996 9.23205
lowerneck 2.2293 -12.9015 -13.6548
upperneck 6.25102 -19.3591 23.4318
head 5.21854 -9.48688 8.36127
rclavicle -3.65764e-014 -6.36111e-015
rhumerus -43.5203 -20.9395 -45.3137
rradius 63.5196
rwrist -14.5952
rhand -34.6593 -53.8101
rfingers 7.12502
rthumb -7.81597 -83.6456
lclavicle -3.65764e-014 -6.36111e-015
lhumerus 22.6784 -31.5666 71.0592
lradius 76.4247
lwrist 19.5008
lhand -1.62101 4.95794
lfingers 7.12502
lthumb 24.0368 33.4727
rfemur -143.413 -76.3078 72.4666
rtibia 149.757
rfoot -24.3491 10.2715
rtoes -17.9159
lfemur -29.9914 6.53478 14.4137
ltibia 41.5935
lfoot -13.219 16.8473
ltoes 8.11136
143
root -4.71542 17.6346 -26.0675 -94.1252 52.5411 -99.9545
lowerback 40.396 -2.66788 -1.42817
upperback 4.36895 -2.07794 7.0995
thorax -14.6622 -0.44904 9.60004
lowerneck 2.383 -13.1984 -13.5384
upperneck 5.88983 -19.7038 23.2798
head 5.12288 -9.6813 8.2562
rclavicle 2.54444e-014 -1.24042e-013
rhumerus -43.4116 -21.114 -44.7397
rradius 64.6421
rwrist -14.9156
rhand -34.3903 -53.5511
rfingers 7.12502
rthumb -7.55628 -83.3961
lclavicle 2.54444e-014 -1.24042e-013
lhumerus 20.0349 -31.6181 72.2905
lradius 77.4906
lwrist 19.3809
lhand -1.84817 4.54786
lfingers 7.12502
lthumb 23.819 33.0912
rfemur -129.998 -73.3811 60.0841
rtibia 147.83
rfoot -24.7776 10.3731
rtoes -19.4536
lfemur -30.9286 8.62248 12.5357
ltibia 43.3423
lfoot -14.3441 15.6163
ltoes 7.66575
144
root -4.68293 17.5429 -25.957 -93.409 54.2028 -99.6371
lowerback 38.8503 -1.85708 -2.93848
upperback 4.39884 -1.79672 6.93235
thorax -14.2131 -0.280427 10.039
lowerneck 2.63274 -13.3881 -13.5785
upperneck 5.50241 -19.9188 23.2778
head 5.01037 -9.81966 8.25178
rclavicle 7.95139e-014 -1.90833e-014
rhumerus -43.2046 -20.9341 -44.3259
rradius 65.8236
rwrist -15.4032
rhand -34.3692 -53.1314
rfingers 7.12502
rthumb -7.5359 -82.9772
lclavicle 7.95139e-014 -1.90833e-014
lhumerus 17.1823 -31.4377 73.5349
lradius 78.4558
lwrist 19.3139
lhand -1.87106 4.27223
lfingers 7.12502
lthumb 23.7971 32.8185
rfemur -120.221 -69.4151 50.8798
rtibia 145.555
rfoot -25.2076 10.4593
rtoes -20.4804
lfemur -32.1151 11.0515 10.7012
ltibia 45.1394
lfoot -15.5375 14.4664
ltoes 7.56015
